#!OML:ASF F:\VICON\USERDATA\INSTALL\rory7\rory7.ASF
:FULLY-SPECIFIED
:DEGREES
974
root -4.887 19.8667 2.83413 -13.0812 -78.3207 8.0745
lowerback 10.5626 1.4707 -0.464159
upperback -1.77694 1.88508 -0.200432
thorax -7.82666 0.933405 -0.273625
lowerneck -0.243459 2.04508 -7.3437
upperneck -12.8508 2.99741 6.32177
head -3.98992 1.45085 3.05137
rclavicle 2.23633e-014 -8.24956e-015
rhumerus 94.0473 -35.1922 -45.6083
rradius 26.6438
rwrist 29.6923
rhand -32.5972 -0.212779
rfingers 7.12502
rthumb -5.82533 -30.1127
lclavicle 2.23633e-014 -8.24956e-015
lhumerus 83.7122 30.8288 30.9888
lradius 22.1176
lwrist -23.4785
lhand -21.7867 24.9998
lfingers 7.12502
lthumb 4.61469 54.9295
rfemur 2.17897 18.9328 25.2531
rtibia 29.812
rfoot 12.6194 -2.13609
rtoes -9.21657
lfemur -0.810717 -11.3187 -17.5854
ltibia 22.8536
lfoot 6.68544 17.286
ltoes 9.09138
975
root -4.88241 19.877 2.8371 -13.8874 -78.4266 8.96484
lowerback 10.5482 1.44578 -0.510523
upperback -1.89401 1.82904 -0.409824
thorax -7.93852 0.902594 -0.461024
lowerneck -0.556338 1.85738 -7.47533
upperneck -13.7025 2.75923 6.35049
head -4.18121 1.33176 3.09977
rclavicle -3.59924e-014 9.93923e-016
rhumerus 94.6985 -34.562 -46.6374
rradius 26.0744
rwrist 29.804
rhand -32.531 0.1427
rfingers 7.12502
rthumb -5.76138 -29.759
lclavicle -3.59924e-014 9.93923e-016
lhumerus 83.4343 30.96 30.7719
lradius 22.1953
lwrist -23.3575
lhand -21.7928 24.6459
lfingers 7.12502
lthumb 4.6088 54.5758
rfemur 2.40673 19.4677 25.2513
rtibia 29.529
rfoot 12.4624 -2.56192
rtoes -9.67753
lfemur -1.12854 -10.9506 -17.5398
ltibia 23.0141
lfoot 7.92079 16.8997
ltoes 8.81051
976
root -4.88056 19.8843 2.84335 -14.7309 -78.5471 9.93654
lowerback 10.4378 1.42672 -0.58072
upperback -2.03014 1.78077 -0.582865
thorax -8.01799 0.877651 -0.595735
lowerneck -0.787605 1.67613 -7.90758
upperneck -14.5193 2.54887 6.67243
head -4.38379 1.22717 3.28938
rclavicle -4.51334e-014 -1.98785e-015
rhumerus 94.9762 -34.0517 -47.0152
rradius 25.5477
rwrist 29.5048
rhand -31.8477 0.537025
rfingers 7.12502
rthumb -5.1017 -29.3816
lclavicle -4.51334e-014 -1.98785e-015
lhumerus 83.5044 30.9978 31.1801
lradius 22.071
lwrist -23.8086
lhand -21.8944 24.196
lfingers 7.12502
lthumb 4.51071 54.128
rfemur 2.48021 19.9657 25.1584
rtibia 29.2621
rfoot 12.3282 -2.74552
rtoes -10.0345
lfemur -1.43712 -10.9285 -17.5817
ltibia 23.1408
lfoot 8.8417 16.6704
ltoes 8.47636
977
root -4.88044 19.8963 2.85033 -16.4425 -78.6177 11.9328
lowerback 10.15 1.42327 -0.810709
upperback -2.20746 1.72755 -0.826658
thorax -8.04254 0.855987 -0.71043
lowerneck -0.672022 1.53552 -8.69523
upperneck -15.64 2.41963 7.42078
head -4.74934 1.15385 3.67434
rclavicle -3.40077e-014 -3.81418e-015
rhumerus 95.2284 -33.3691 -47.4974
rradius 24.9869
rwrist 29.7893
rhand -31.4196 0.380092
rfingers 7.12502
rthumb -4.6883 -29.548
lclavicle -3.40077e-014 -3.81418e-015
lhumerus 83.3205 31.0616 31.1582
lradius 21.976
lwrist -23.9262
lhand -21.9197 23.89
lfingers 7.12502
lthumb 4.48627 53.8225
rfemur 2.36905 20.1656 24.6296
rtibia 28.9931
rfoot 12.2053 -2.67608
rtoes -9.27488
lfemur -1.87604 -11.0701 -17.8935
ltibia 23.2884
lfoot 9.93837 16.2732
ltoes 6.28231
978
root -4.88038 19.9135 2.85482 -18.1279 -78.651 13.992
lowerback 9.78665 1.42103 -1.05109
upperback -2.40934 1.67329 -1.10076
thorax -8.04924 0.833246 -0.849662
lowerneck -0.719786 1.36238 -9.19711
upperneck -16.5815 2.23424 7.91596
head -5.02221 1.05397 3.93856
rclavicle 2.04251e-014 1.04859e-014
rhumerus 95.6802 -32.5917 -48.5086
rradius 24.3438
rwrist 30.7152
rhand -31.6403 0.672177
rfingers 7.12502
rthumb -4.90139 -29.2511
lclavicle 2.04251e-014 1.04859e-014
lhumerus 82.6308 31.2288 30.2166
lradius 22.0856
lwrist -23.1267
lhand -21.9435 23.8594
lfingers 7.12502
lthumb 4.46329 53.7923
rfemur 2.13569 19.9434 23.9037
rtibia 28.747
rfoot 12.231 -2.35956
rtoes -8.39757
lfemur -2.41778 -11.18 -18.1911
ltibia 23.4495
lfoot 11.0391 15.8834
ltoes 4.45939
979
root -4.87817 19.9243 2.85636 -18.4692 -78.8291 14.4405
lowerback 9.69796 1.45925 -1.00831
upperback -2.56486 1.71539 -1.26091
thorax -8.15912 0.84641 -1.05099
lowerneck -1.45037 1.17238 -9.08129
upperneck -16.5489 1.98265 7.64698
head -4.86535 0.945951 3.84635
rclavicle 2.53699e-014 -4.17448e-015
rhumerus 95.4606 -32.2592 -48.416
rradius 23.8282
rwrist 30.6738
rhand -31.511 1.17868
rfingers 7.12502
rthumb -4.77656 -28.7475
lclavicle 2.53699e-014 -4.17448e-015
lhumerus 82.4302 31.2893 29.925
lradius 22.0293
lwrist -22.7346
lhand -21.8511 24.0507
lfingers 7.12502
lthumb 4.55257 53.9818
rfemur 2.11164 19.7812 23.7089
rtibia 28.5276
rfoot 12.4097 -2.0465
rtoes -9.07596
lfemur -2.71498 -11.1917 -18.0992
ltibia 23.599
lfoot 11.9711 15.641
ltoes 3.90684
